<svg width="41" height="55" viewBox="0 0 41 55" fill="none" xmlns="http://www.w3.org/2000/svg">
<path d="M32.5 54H8L9 53H19V24H22V53H31.5L32.5 54Z" fill="black"/>
<path d="M22 24V53H31.5L32.5 54H8L9 53H19V24M22 24L40 4M22 24H19M19 24L1 4" stroke="black"/>
<path d="M18.5 23.5L1.5 4.5H39.5L22.5 23.5H18.5Z" fill="#CCB19B"/>
<rect x="13.3536" y="17.0711" width="9.5" height="9.5" transform="rotate(-45 13.3536 17.0711)" stroke="black" stroke-width="0.5"/>
<rect x="20.3536" y="9.07106" width="9.5" height="9.5" transform="rotate(-45 20.3536 9.07106)" stroke="black" stroke-width="0.5"/>
<rect x="7.35355" y="7.07106" width="9.5" height="9.5" transform="rotate(-45 7.35355 7.07106)" stroke="black" stroke-width="0.5"/>
</svg>
