<svg width="31" height="59" viewBox="0 0 31 59" fill="none" xmlns="http://www.w3.org/2000/svg">
<path d="M30.0962 58H1.09619V50.2667H30.0962V58Z" fill="black"/>
<path d="M30.0962 0V50.2667M1.09619 50.2667V58H30.0962V50.2667M1.09619 50.2667H30.0962M1.09619 50.2667V0" stroke="black"/>
<path d="M29.7146 1.28889H1.47778V49.6222H29.7146V1.28889Z" fill="#F6F6F6"/>
<rect x="16.4497" y="36.0711" width="9.5" height="9.5" transform="rotate(-45 16.4497 36.0711)" stroke="black" stroke-width="0.5"/>
<rect x="10.3462" y="39.25" width="9.5" height="9.5" stroke="black" stroke-width="0.5"/>
<rect x="9.16724" y="39.7886" width="9.5" height="9.5" transform="rotate(-135 9.16724 39.7886)" stroke="black" stroke-width="0.5"/>
<rect x="16.2102" y="16.9363" width="9.5" height="9.5" transform="rotate(-90 16.2102 16.9363)" stroke="black" stroke-width="0.5"/>
<rect x="13.435" y="24.2071" width="9.5" height="9.5" transform="rotate(-45 13.435 24.2071)" stroke="black" stroke-width="0.5"/>
<rect x="12.9822" y="25.4216" width="9.5" height="9.5" transform="rotate(180 12.9822 25.4216)" stroke="black" stroke-width="0.5"/>
</svg>
