<svg width="31" height="59" viewBox="0 0 31 59" fill="none" xmlns="http://www.w3.org/2000/svg">
<path d="M30 58H1V50.2667H30V58Z" fill="black"/>
<path d="M30 0V50.2667M1 50.2667V58H30V50.2667M1 50.2667H30M1 50.2667V0" stroke="black"/>
<path d="M29.6184 1.28889H1.38158V49.6222H29.6184V1.28889Z" fill="#B5998D"/>
<rect x="16.3536" y="36.0711" width="9.5" height="9.5" transform="rotate(-45 16.3536 36.0711)" stroke="black" stroke-width="0.5"/>
<rect x="10.25" y="39.25" width="9.5" height="9.5" stroke="black" stroke-width="0.5"/>
<rect x="9.07104" y="39.7886" width="9.5" height="9.5" transform="rotate(-135 9.07104 39.7886)" stroke="black" stroke-width="0.5"/>
<rect x="16.114" y="16.9363" width="9.5" height="9.5" transform="rotate(-90 16.114 16.9363)" stroke="black" stroke-width="0.5"/>
<rect x="13.3388" y="24.2071" width="9.5" height="9.5" transform="rotate(-45 13.3388 24.2071)" stroke="black" stroke-width="0.5"/>
<rect x="12.886" y="25.4216" width="9.5" height="9.5" transform="rotate(180 12.886 25.4216)" stroke="black" stroke-width="0.5"/>
</svg>
