<svg width="43" height="57" viewBox="0 0 43 57" fill="none" xmlns="http://www.w3.org/2000/svg">
<path d="M34.9002 56.5H7.40023L15.9002 53V45H26.9002V53L34.9002 56.5Z" fill="black"/>
<path d="M26.9002 45V53L34.9002 56.5H7.40023L15.9002 53V45M26.9002 45C35.9002 41.8333 50.1002 28.6 34.9002 1M26.9002 45H15.9002M7.90023 1C1.23356 12.3333 -6.49977 37 15.9002 45" stroke="black"/>
<path d="M35.2895 2.5H7.10028C-6.43055 30.9 7.27113 42.3333 15.8133 44.5H26.5765C48 36.5 41.4399 12.3333 35.2895 2.5Z" fill="#CCB19B"/>
<rect x="21.3536" y="31.0711" width="9.5" height="9.5" transform="rotate(-45 21.3536 31.0711)" stroke="black" stroke-width="0.5"/>
<rect x="14.25" y="34.25" width="9.5" height="9.5" stroke="black" stroke-width="0.5"/>
<rect x="13.071" y="34.7886" width="9.5" height="9.5" transform="rotate(-135 13.071 34.7886)" stroke="black" stroke-width="0.5"/>
<rect x="20.114" y="11.9363" width="9.5" height="9.5" transform="rotate(-90 20.114 11.9363)" stroke="black" stroke-width="0.5"/>
<rect x="17.3388" y="19.2071" width="9.5" height="9.5" transform="rotate(-45 17.3388 19.2071)" stroke="black" stroke-width="0.5"/>
<rect x="16.886" y="20.4216" width="9.5" height="9.5" transform="rotate(180 16.886 20.4216)" stroke="black" stroke-width="0.5"/>
</svg>
