<svg width="183" height="206" viewBox="0 0 183 206" fill="none" xmlns="http://www.w3.org/2000/svg">
<path d="M106.226 32.0323C109.789 32.0323 112.677 29.1438 112.677 25.5806C112.677 22.0175 109.789 19.129 106.226 19.129C102.663 19.129 99.7742 22.0175 99.7742 25.5806C99.7742 29.1438 102.663 32.0323 106.226 32.0323Z" stroke="#ADD8E6" stroke-width="5" stroke-linecap="round" stroke-linejoin="round"/>
<path d="M106.668 53.6355V58.2" stroke="#ADD8E6" stroke-width="5" stroke-linecap="round" stroke-linejoin="round"/>
<path d="M106.668 71.8903V76.4548" stroke="#ADD8E6" stroke-width="5" stroke-linecap="round" stroke-linejoin="round"/>
<path d="M95.2581 65.0452H99.8194" stroke="#ADD8E6" stroke-width="5" stroke-linecap="round" stroke-linejoin="round"/>
<path d="M113.513 65.0452H118.077" stroke="#ADD8E6" stroke-width="5" stroke-linecap="round" stroke-linejoin="round"/>
<path d="M80.8871 190.097H80.4194V65.5161C80.4189 64.2685 79.9794 63.0609 79.1778 62.1048C78.3763 61.1487 77.2639 60.5053 76.0355 60.2871L44.9355 54.6129L13.7871 60.2548C12.569 60.4822 11.4687 61.1284 10.6769 62.0817C9.88512 63.0349 9.45166 64.235 9.45161 65.4742V190.097H8.98387C7.39711 190.098 5.87559 190.728 4.75358 191.85C3.63157 192.972 3.00085 194.494 3 196.081V203H86.871V196.081C86.8701 194.494 86.2394 192.972 85.1174 191.85C83.9954 190.728 82.4739 190.098 80.8871 190.097Z" stroke="#ADD8E6" stroke-width="5" stroke-linecap="round" stroke-linejoin="round"/>
<path d="M57.8387 55.9161V3H32.0322V55.9161" stroke="#ADD8E6" stroke-width="5" stroke-linecap="round" stroke-linejoin="round"/>
<path d="M80.4194 190.097H22.3549" stroke="#ADD8E6" stroke-width="5" stroke-linecap="round" stroke-linejoin="round"/>
<path d="M41.7097 4.14838V28.8064H33.0806" stroke="#ADD8E6" stroke-width="5" stroke-linecap="round" stroke-linejoin="round"/>
<path d="M44.9355 83.6452V70.7419" stroke="#ADD8E6" stroke-width="5" stroke-linecap="round" stroke-linejoin="round"/>
<path d="M54.6129 86.871L61.0645 80.4194" stroke="#ADD8E6" stroke-width="5" stroke-linecap="round" stroke-linejoin="round"/>
<path d="M35.2581 86.871L28.8065 80.4194" stroke="#ADD8E6" stroke-width="5" stroke-linecap="round" stroke-linejoin="round"/>
<path d="M10.4548 106.226H79.6645" stroke="#ADD8E6" stroke-width="5" stroke-linecap="round" stroke-linejoin="round"/>
<path d="M79.1516 148.161H10.4548" stroke="#ADD8E6" stroke-width="5" stroke-linecap="round" stroke-linejoin="round"/>
<path d="M135.258 154.613H99.7742L103 193.323V203H132.032V193.323L135.258 154.613Z" stroke="#ADD8E6" stroke-width="5" stroke-linecap="round" stroke-linejoin="round"/>
<path d="M180.419 154.613H144.935L148.161 193.323V203H177.194V193.323L180.419 154.613Z" stroke="#ADD8E6" stroke-width="5" stroke-linecap="round" stroke-linejoin="round"/>
<path d="M54.6129 123.968C54.6129 121.295 52.4465 119.129 49.7742 119.129C47.1019 119.129 44.9355 121.295 44.9355 123.968V130.419C44.9355 133.092 47.1019 135.258 49.7742 135.258C52.4465 135.258 54.6129 133.092 54.6129 130.419V123.968Z" stroke="#ADD8E6" stroke-width="5" stroke-linecap="round" stroke-linejoin="round"/>
<path d="M64.2903 115.903V119.129" stroke="#ADD8E6" stroke-width="5" stroke-linecap="round" stroke-linejoin="round"/>
<path d="M35.2581 119.129V135.258" stroke="#ADD8E6" stroke-width="5" stroke-linecap="round" stroke-linejoin="round"/>
<path d="M25.5807 119.129V128.806H35.2581" stroke="#ADD8E6" stroke-width="5" stroke-linecap="round" stroke-linejoin="round"/>
<path d="M57.8387 44.9355H32.0322" stroke="#ADD8E6" stroke-width="5" stroke-linejoin="round"/>
<path d="M178.584 167.516H146.655" stroke="#ADD8E6" stroke-width="5" stroke-linejoin="round"/>
<path d="M177.194 193.323H148.161" stroke="#ADD8E6" stroke-width="5" stroke-linejoin="round"/>
<path d="M133.423 167.516H101.494" stroke="#ADD8E6" stroke-width="5" stroke-linejoin="round"/>
<path d="M132.032 193.323H103" stroke="#ADD8E6" stroke-width="5" stroke-linejoin="round"/>
</svg>
