<svg width="1394" height="969" viewBox="0 0 1394 969" fill="none" xmlns="http://www.w3.org/2000/svg">
<circle cx="239" cy="744" r="193" fill="url(#paint0_radial_10_6)"/>
<circle cx="1201" cy="744" r="193" fill="url(#paint1_radial_10_6)"/>
<circle cx="1187" cy="325" r="193" fill="url(#paint2_radial_10_6)"/>
<circle cx="193" cy="601" r="193" fill="url(#paint3_radial_10_6)"/>
<circle cx="773" cy="414" r="414" fill="url(#paint4_radial_10_6)"/>
<path d="M811 644.5C811 823.716 665.716 969 486.5 969C307.284 969 162 823.716 162 644.5C162 465.284 307.284 320 486.5 320C665.716 320 811 465.284 811 644.5Z" fill="url(#paint5_radial_10_6)"/>
<defs>
<radialGradient id="paint0_radial_10_6" cx="0" cy="0" r="1" gradientUnits="userSpaceOnUse" gradientTransform="translate(239 744) rotate(90) scale(193)">
<stop stop-color="#FF8080"/>
<stop offset="1" stop-color="#FF8383" stop-opacity="0"/>
</radialGradient>
<radialGradient id="paint1_radial_10_6" cx="0" cy="0" r="1" gradientUnits="userSpaceOnUse" gradientTransform="translate(1201 744) rotate(90) scale(193)">
<stop stop-color="#80F7FF"/>
<stop offset="0.0625" stop-color="#87F0F7" stop-opacity="0.9375"/>
<stop offset="1" stop-color="#87F0F7" stop-opacity="0"/>
</radialGradient>
<radialGradient id="paint2_radial_10_6" cx="0" cy="0" r="1" gradientUnits="userSpaceOnUse" gradientTransform="translate(1187 325) rotate(90) scale(193)">
<stop stop-color="#FF8080" stop-opacity="0.5"/>
<stop offset="1" stop-color="#FF8383" stop-opacity="0"/>
</radialGradient>
<radialGradient id="paint3_radial_10_6" cx="0" cy="0" r="1" gradientUnits="userSpaceOnUse" gradientTransform="translate(193 601) rotate(90) scale(193)">
<stop stop-color="#6FFFE5"/>
<stop offset="1" stop-color="#6FFFE5" stop-opacity="0"/>
</radialGradient>
<radialGradient id="paint4_radial_10_6" cx="0" cy="0" r="1" gradientUnits="userSpaceOnUse" gradientTransform="translate(773 414) rotate(90) scale(414)">
<stop stop-color="#8DA0FF"/>
<stop offset="1" stop-color="#FF8383" stop-opacity="0"/>
<stop offset="1" stop-color="#8DA0FF" stop-opacity="0"/>
</radialGradient>
<radialGradient id="paint5_radial_10_6" cx="0" cy="0" r="1" gradientUnits="userSpaceOnUse" gradientTransform="translate(486 645) rotate(90) scale(324)">
<stop stop-color="#A5FF6D"/>
<stop offset="1" stop-color="#A5FF6D" stop-opacity="0"/>
</radialGradient>
</defs>
</svg>
