<svg width="180" height="200" viewBox="0 0 180 200" fill="none" xmlns="http://www.w3.org/2000/svg">
<path d="M179.738 2.10259C179.019 0.359232 177.043 -0.463423 175.324 0.265872L140.097 15.2014C139.525 15.444 139.029 15.8424 138.665 16.3522L119.741 42.8697H61.6489C59.9618 27.185 46.8264 14.9366 30.9184 14.9366C20.1634 14.9366 10.678 20.5377 5.13676 29.0111C5.1125 29.0428 5.08553 29.0717 5.06204 29.1045C4.95765 29.2494 4.87022 29.401 4.79203 29.5557C1.76258 34.4022 0 40.14 0 46.2908C0 63.5802 13.87 77.6459 30.9184 77.6459C36.7651 77.6459 42.0794 76.1685 46.7647 73.2603L51.5991 78.9494C52.8159 80.3814 54.9471 80.5412 56.3573 79.308C57.7693 78.0744 57.9272 75.9142 56.7108 74.4818L47.7909 63.9845C53.3571 61.1517 58.8005 60.0349 64.0073 60.6767C69.8409 61.3955 73.6661 64.0775 78.0949 67.183C81.3458 69.4627 84.7065 71.8197 89.1523 73.6525C93.7159 75.533 98.5888 76.4728 103.744 76.4728C106.401 76.4728 109.134 76.2209 111.937 75.7213L84.8502 107.599L65.8192 85.2021C64.6024 83.7705 62.4716 83.6107 61.0611 84.8435C59.649 86.0771 59.4911 88.238 60.7075 89.6697L80.9995 113.55C81.1436 113.72 81.3038 113.87 81.4741 114.006V176.947L48.6498 193.515C47.2481 194.223 46.5101 195.815 46.8687 197.361C47.2273 198.907 48.5874 200 50.1532 200H119.548C121.114 200 122.473 198.907 122.832 197.361C123.191 195.815 122.453 194.223 121.051 193.515L88.2267 176.948V114.006C88.3973 113.87 88.5572 113.72 88.7012 113.55L143.954 48.5248C144.815 47.5111 145.015 46.0818 144.465 44.8654C143.915 43.649 142.717 42.8693 141.398 42.8693H128.071L143.575 21.1436L177.926 6.57876C179.646 5.85024 180.457 3.84595 179.738 2.10259ZM105.196 193.156H64.505L84.849 182.888L105.196 193.156ZM54.8481 42.8697H34.3854L44.6709 26.1506C50.0834 29.9639 53.8913 35.9576 54.8481 42.8697ZM30.9192 21.7799C33.6104 21.7799 36.1977 22.2354 38.6174 23.0619L27.3609 41.3596L12.5395 30.3994C16.976 25.1307 23.5672 21.7799 30.9192 21.7799ZM6.74874 46.2912C6.74874 42.6885 7.52565 39.2682 8.90806 36.1834L23.7695 47.1732L13.6743 63.4431C9.39493 59.0197 6.74874 52.9642 6.74874 46.2912ZM30.9192 70.8029C26.6071 70.8029 22.5585 69.6463 19.0499 67.631L28.7283 52.0326L42.2832 67.9853C38.894 69.8549 35.0872 70.8029 30.9192 70.8029ZM134.037 49.7131L119.778 66.4951C109.22 70.3611 99.7732 70.6424 91.6945 67.3127C87.9362 65.7635 84.8845 63.624 81.934 61.5545C77.2017 58.2361 72.3091 54.8056 64.822 53.8834C57.782 53.0162 50.5406 54.6295 43.2704 58.6639L35.665 49.7131H121.459C121.46 49.7131 121.461 49.7131 121.462 49.7131C121.463 49.7131 121.464 49.7131 121.465 49.7131H134.037Z" fill="#9ED9CC"/>
</svg>
