<svg width="180" height="200" viewBox="0 0 180 200" fill="none" xmlns="http://www.w3.org/2000/svg">
<path d="M49.0909 120.001C47.2844 120.001 45.8182 121.494 45.8182 123.334V130C45.8182 131.84 47.2844 133.334 49.0909 133.334C50.8974 133.334 52.3636 131.84 52.3636 130V123.334C52.3636 121.494 50.8974 120.001 49.0909 120.001Z" fill="#808000"/>
<path d="M49.0909 140C47.2844 140 45.8182 141.494 45.8182 143.334V146.667C45.8182 148.507 47.2844 150 49.0909 150C50.8974 150 52.3636 148.507 52.3636 146.667V143.334C52.3636 141.494 50.8974 140 49.0909 140Z" fill="#808000"/>
<path d="M68.7273 130C66.9207 130 65.4546 131.494 65.4546 133.334V136.667C65.4546 138.507 66.9207 140 68.7273 140C70.5338 140 72 138.507 72 136.667V133.334C72 131.494 70.5338 130 68.7273 130Z" fill="#808000"/>
<path d="M88.3636 120.001C86.5571 120.001 85.0909 121.494 85.0909 123.334V130C85.0909 131.84 86.5571 133.334 88.3636 133.334C90.1702 133.334 91.6364 131.84 91.6364 130V123.334C91.6364 121.494 90.1702 120.001 88.3636 120.001Z" fill="#808000"/>
<path d="M88.3636 140C86.5571 140 85.0909 141.494 85.0909 143.334V146.667C85.0909 148.507 86.5571 150 88.3636 150C90.1702 150 91.6364 148.507 91.6364 146.667V143.334C91.6364 141.494 90.1702 140 88.3636 140Z" fill="#808000"/>
<path d="M108 130C106.19 130 104.727 131.494 104.727 133.334V136.667C104.727 138.507 106.19 140 108 140C109.81 140 111.273 138.507 111.273 136.667V133.334C111.273 131.494 109.81 130 108 130Z" fill="#808000"/>
<path d="M62.1818 83.3341C60.3753 83.3341 58.9091 84.8275 58.9091 86.6674V90.0008C58.9091 91.8407 60.3753 93.3341 62.1818 93.3341C63.9884 93.3341 65.4545 91.8407 65.4545 90.0008V86.6674C65.4545 84.8275 63.9884 83.3341 62.1818 83.3341Z" fill="#808000"/>
<path d="M180 60.001C180 53.071 170.332 49.4444 160.776 49.4444C159.663 49.4444 158.554 49.4977 157.454 49.5977C158.259 48.8444 159.051 48.051 159.814 47.2077C166.281 40.0444 170.208 30.3378 165.201 25.6445C160.187 20.9546 150.752 25.7612 144.285 32.9211L144.01 32.9245C144.01 32.9211 144.01 32.9211 144.01 32.9178C144 23.1879 140.986 13.3346 134.182 13.3346C127.378 13.3346 124.364 23.1879 124.364 32.9178C124.364 32.9211 124.364 32.9211 124.364 32.9245L124.089 32.9211C117.619 25.7579 108.321 20.9646 103.31 25.6479C98.3029 30.3378 102.161 40.0444 108.628 47.2077C109.391 48.051 110.147 48.8477 110.952 49.5977C109.852 49.501 108.723 49.4444 107.611 49.4444C98.0542 49.4444 88.3735 53.071 88.3735 60.001C88.3735 66.9309 98.0411 70.5575 107.597 70.5575C108.71 70.5575 109.82 70.5042 110.919 70.4042C110.114 71.1575 109.322 71.9509 108.56 72.7942C102.093 79.9575 98.1655 89.6641 103.173 94.3574C104.554 95.6474 106.249 96.2174 108.118 96.2174C113.03 96.2174 119.405 92.2707 124.089 87.0808L124.364 87.0774C124.364 87.0808 124.364 87.0808 124.364 87.0841C124.364 92.2241 125.093 97.384 127.034 101.124C124.832 100.461 122.047 100.001 118.6 100.001C111.427 100.001 107.591 101.967 104.272 103.701C101.222 105.291 98.5549 106.667 92.9618 106.667C87.372 106.667 84.7244 105.294 81.6775 103.701C78.3589 101.967 74.5887 100.001 67.4182 100.001C60.2476 100.001 56.4775 101.967 53.1556 103.701C50.1087 105.294 47.4775 106.667 41.8844 106.667C36.288 106.667 33.6502 105.294 30.5902 103.704C30.0927 103.447 29.5756 103.181 29.0422 102.917C28.8622 102.827 28.6724 102.741 28.4858 102.654C28.0735 102.457 27.6447 102.267 27.1996 102.077C26.9836 101.984 26.7676 101.897 26.5418 101.807C26.0313 101.607 25.4913 101.417 24.9251 101.241C24.7549 101.187 24.6011 101.127 24.4276 101.077C24.3753 101.064 24.3327 101.044 24.2804 101.031L23.0204 90.7674L37.8131 66.6676H39.2727H52.3636H58.9091V73.3342C58.9091 75.1742 60.3753 76.6675 62.1818 76.6675C63.9884 76.6675 65.4546 75.1742 65.4546 73.3342V66.6676H81.8182C83.6247 66.6676 85.0909 65.1743 85.0909 63.3343C85.0909 61.4943 83.6247 60.001 81.8182 60.001H78.5455V42.8611C84.1746 41.3711 88.3636 36.1944 88.3636 30.0012C88.3636 26.6778 87.12 23.6712 85.1367 21.3345L87.4047 19.0246C88.6844 17.7212 88.6844 15.6146 87.4047 14.3113C86.1251 13.0079 84.0567 13.0079 82.7771 14.3113L79.6549 17.4912C79.2916 17.3612 78.9218 17.2412 78.5455 17.1412V13.3346C78.5455 11.4946 77.0793 10.0013 75.2727 10.0013C73.4662 10.0013 72 11.4946 72 13.3346V17.1412C71.6236 17.2412 71.2538 17.3612 70.8905 17.4912L67.7684 14.3113C66.4887 13.0079 64.4204 13.0079 63.1407 14.3113C61.8611 15.6146 61.8611 17.7212 63.1407 19.0246L65.4087 21.3345C63.4255 23.6712 62.1818 26.6778 62.1818 30.0012C62.1818 36.1944 66.3709 41.3711 72 42.8611V60.001H55.6364V23.3345C55.6364 18.6512 52.5076 14.6446 48.3022 13.6713L7.56 0.164694C6.56509 -0.168637 5.472 0.0113613 4.62436 0.638024C3.77673 1.26469 3.27273 2.26801 3.27273 3.33467V16.6679C3.27273 18.0746 4.14 19.3279 5.43927 19.8046L36 30.9812V60.001C34.8709 60.001 33.8236 60.5943 33.2247 61.5676L16.8611 88.2341C16.4618 88.8841 16.2949 89.6541 16.3898 90.4141L18.0785 104.167L25.4193 163.987L27.3305 179.56C27.9949 184.973 30.4756 189.75 34.0789 193.333H19.6364C17.8298 193.333 16.3636 194.827 16.3636 196.667C16.3636 198.507 17.8298 200 19.6364 200H49.0909C49.1564 200 49.2087 199.967 49.2742 199.963C49.536 199.973 49.7945 200 50.0596 200H107.028C108.075 200 109.103 199.903 110.117 199.763C110.481 199.903 110.864 200 111.273 200H140.727C142.537 200 144 198.507 144 196.667C144 194.827 142.537 193.333 140.727 193.333H123.012C126.615 189.75 129.096 184.973 129.76 179.56L131.521 165.194L138.427 108.934C138.44 108.827 138.41 108.727 138.413 108.621C138.42 108.454 138.41 108.301 138.394 108.137C138.364 107.887 138.309 107.657 138.227 107.424C138.178 107.277 138.132 107.137 138.063 107.001C137.942 106.764 137.788 106.561 137.615 106.361C137.527 106.257 137.458 106.147 137.356 106.054C137.307 106.007 136.983 105.964 136.931 105.921C141.758 103.474 144 95.2474 144 87.0841C144 87.0808 144 87.0808 144 87.0774C144 87.0774 144.275 87.0808 144.278 87.0808C148.965 92.2707 155.199 96.2174 160.112 96.2174C161.98 96.2174 163.748 95.6474 165.129 94.3541C170.136 89.6641 166.245 79.9575 159.778 72.7942C159.015 71.9509 158.243 71.1542 157.438 70.4042C158.537 70.5009 159.657 70.5575 160.769 70.5575C170.326 70.5575 180 66.9309 180 60.001ZM68.7273 30.0012C68.7273 26.3245 71.6629 23.3345 75.2727 23.3345C78.8826 23.3345 81.8182 26.3245 81.8182 30.0012C81.8182 33.6778 78.8826 36.6678 75.2727 36.6678C71.6629 36.6678 68.7273 33.6778 68.7273 30.0012ZM14.9236 16.1913L9.81818 14.3213V7.92131L18.4615 10.7846L14.9236 16.1913ZM27.2487 20.6979L21.2727 18.5112L24.9284 12.9246L31.0156 14.9413L27.2487 20.6979ZM33.5945 23.0179L37.4793 17.0812L46.5513 20.0846C48.0469 20.4379 49.0909 21.7745 49.0909 23.3345V60.001H42.5455V28.6378C42.5455 27.2312 41.6782 25.9778 40.3789 25.5012L33.5945 23.0179ZM149.371 37.4311C154.25 32.0211 158.672 30.4445 160.243 30.4445C160.485 30.4445 160.661 30.4812 160.756 30.5478C161.319 31.2678 160.616 36.4611 154.987 42.6944C149.357 48.9377 144.317 50.071 143.601 49.5777C143.038 48.8577 143.741 43.6644 149.371 37.4311ZM134.175 20.0012C135.065 20.1446 138.001 24.4545 138.001 32.9178C138.001 41.3811 135.069 45.691 134.188 45.8344C133.298 45.691 130.363 41.3811 130.363 32.9178C130.363 24.4545 133.295 20.1446 134.175 20.0012ZM107.591 63.8909C99.2749 63.8909 95.0498 60.9043 94.9091 60.0076C95.0498 59.101 99.2749 56.1143 107.591 56.1143C115.907 56.1143 120.132 59.101 120.273 59.9976C120.132 60.9009 115.907 63.8909 107.591 63.8909ZM118.993 82.5708C113.357 88.8141 108.321 89.9574 107.607 89.4541C107.044 88.7341 107.748 83.5408 113.377 77.3075C118.253 71.9009 122.678 70.3209 124.249 70.3209C124.491 70.3209 124.668 70.3576 124.763 70.4242C125.326 71.1442 124.622 76.3375 118.993 82.5708ZM124.773 49.5677C124.049 50.081 119.006 48.9377 113.377 42.6944C107.748 36.4611 107.044 31.2678 107.594 30.5578C107.696 30.4878 107.876 30.4478 108.124 30.4478C109.715 30.4478 114.123 32.0345 118.993 37.4278C124.622 43.6644 125.326 48.8577 124.773 49.5677ZM123.267 178.733C122.246 187.057 115.262 193.333 107.028 193.333H96.7189L97.5436 192.773C99.0491 191.753 99.4549 189.683 98.4502 188.15C97.4455 186.617 95.4164 186.2 93.9109 187.227L84.9175 193.333H81.8182V186.667C81.8182 184.827 80.352 183.333 78.5455 183.333C76.7389 183.333 75.2727 184.827 75.2727 186.667V193.333H72.9916L63.9982 187.227C62.4927 186.2 60.4636 186.617 59.4589 188.15C58.4575 189.68 58.8633 191.753 60.3655 192.773L61.1902 193.333H50.0596C41.8255 193.333 34.8447 187.057 33.8236 178.733L32.2004 165.497C32.3476 165.424 32.4916 165.354 32.6389 165.284C32.7469 165.23 32.8582 165.18 32.9695 165.127C33.2869 164.98 33.6109 164.844 33.9415 164.71C33.984 164.694 34.0265 164.674 34.0691 164.657C34.4455 164.51 34.8349 164.37 35.2375 164.244C35.3356 164.214 35.4404 164.187 35.5418 164.157C35.8495 164.067 36.1669 163.98 36.4975 163.9C36.648 163.864 36.8084 163.834 36.9655 163.8C37.2698 163.737 37.584 163.68 37.9113 163.627C38.088 163.6 38.268 163.57 38.4513 163.547C38.8015 163.5 39.1745 163.464 39.5575 163.434C39.7309 163.42 39.8978 163.4 40.0811 163.39C40.6505 163.357 41.2495 163.334 41.9007 163.334C47.4938 163.334 50.1284 164.71 53.1753 166.3C56.4971 168.034 60.264 170 67.4345 170C74.6051 170 78.3687 168.034 81.6873 166.3C84.7342 164.707 87.3622 163.334 92.952 163.334C98.5418 163.334 101.173 164.707 104.22 166.3C107.545 168.034 111.312 170 118.483 170C119.553 170 120.567 169.957 121.546 169.87C121.811 169.847 122.05 169.794 122.308 169.764C123.009 169.684 123.709 169.604 124.373 169.47C124.383 169.47 124.39 169.467 124.4 169.467L123.267 178.733ZM125.27 162.367C124.809 162.517 124.315 162.664 123.768 162.79C123.627 162.824 123.467 162.847 123.32 162.877C122.825 162.98 122.285 163.064 121.709 163.137C121.497 163.164 121.284 163.19 121.058 163.21C120.273 163.28 119.438 163.334 118.483 163.334C112.889 163.334 110.258 161.957 107.211 160.367C103.889 158.634 100.129 156.667 92.9553 156.667C85.7847 156.667 82.0211 158.634 78.7026 160.367C75.6556 161.96 73.0244 163.334 67.4345 163.334C61.8415 163.334 59.2069 161.957 56.16 160.367C53.2538 158.85 50.0073 157.154 44.4338 156.754C43.6385 156.697 42.7975 156.667 41.9007 156.667C40.8306 156.667 39.8585 156.724 38.9324 156.804C38.6509 156.827 38.3891 156.864 38.1175 156.894C37.4727 156.967 36.8575 157.054 36.2782 157.16C36.0295 157.207 35.7807 157.25 35.5451 157.3C34.8873 157.44 34.2622 157.597 33.6764 157.774C33.5847 157.8 33.48 157.824 33.3884 157.85C32.7175 158.06 32.0924 158.29 31.4967 158.53C31.4509 158.547 31.3985 158.564 31.3527 158.584L25.2 108.454C25.3211 108.511 25.4487 108.567 25.5698 108.624C26.2473 108.944 26.9149 109.281 27.612 109.641C30.9404 111.374 34.7105 113.334 41.8811 113.334C49.0516 113.334 52.8153 111.367 56.1371 109.634C59.184 108.041 61.8153 106.667 67.4051 106.667C72.9949 106.667 75.6229 108.041 78.6698 109.634C81.9949 111.367 85.7586 113.334 92.9291 113.334C100.103 113.334 103.87 111.367 107.188 109.634C110.239 108.044 112.87 106.667 118.463 106.667C124.063 106.667 126.7 108.044 129.751 109.634C130.363 109.951 130.978 110.274 131.629 110.591L125.27 162.367ZM134.188 100.001C133.298 99.8574 130.363 95.5474 130.363 87.0841C130.363 78.6208 133.295 74.3109 134.175 74.1675C135.065 74.3109 138.001 78.6208 138.001 87.0841C138.001 95.5474 135.069 99.8574 134.188 100.001ZM134.182 67.5009C130.124 67.5009 126.818 64.1376 126.818 60.001C126.818 55.8643 130.124 52.501 134.182 52.501C138.24 52.501 141.545 55.8643 141.545 60.001C141.545 64.1376 138.24 67.5009 134.182 67.5009ZM160.769 89.4441C160.013 89.9608 155.003 88.8141 149.371 82.5708C143.741 76.3375 143.038 71.1442 143.591 70.4342C143.689 70.3642 143.869 70.3276 144.118 70.3276C145.705 70.3276 150.12 71.9142 154.987 77.3075C160.616 83.5408 161.319 88.7341 160.769 89.4441ZM148.091 60.0043C148.232 59.101 152.457 56.111 160.773 56.111C169.089 56.111 173.314 59.0976 173.455 59.9943C173.314 60.9009 169.089 63.8876 160.773 63.8876C152.457 63.8876 148.232 60.901 148.091 60.0043Z" fill="#808000"/>
<path d="M6.54545 193.333H3.27273C1.46618 193.333 0 194.827 0 196.667C0 198.507 1.46618 200 3.27273 200H6.54545C8.352 200 9.81818 198.507 9.81818 196.667C9.81818 194.827 8.352 193.333 6.54545 193.333Z" fill="#808000"/>
<path d="M157.091 193.333H153.818C152.008 193.333 150.545 194.827 150.545 196.667C150.545 198.507 152.008 200 153.818 200H157.091C158.901 200 160.364 198.507 160.364 196.667C160.364 194.827 158.901 193.333 157.091 193.333Z" fill="#808000"/>
</svg>
