<svg width="41" height="30" viewBox="0 0 41 30" fill="none" xmlns="http://www.w3.org/2000/svg">
<path fill-rule="evenodd" clip-rule="evenodd" d="M25 26.25C25 26.5815 24.8683 26.8995 24.6339 27.1339C24.3995 27.3683 24.0815 27.5 23.75 27.5H3.75C3.41848 27.5 3.10054 27.3683 2.86612 27.1339C2.6317 26.8995 2.5 26.5815 2.5 26.25V3.75C2.5 3.41848 2.6317 3.10054 2.86612 2.86612C3.10054 2.6317 3.41848 2.5 3.75 2.5H23.75C24.0815 2.5 24.3995 2.6317 24.6339 2.86612C24.8683 3.10054 25 3.41848 25 3.75V8.75C25 9.08152 25.1317 9.39946 25.3661 9.63388C25.6005 9.8683 25.9185 10 26.25 10C26.5815 10 26.8995 9.8683 27.1339 9.63388C27.3683 9.39946 27.5 9.08152 27.5 8.75V3.75C27.5 2.75544 27.1049 1.80161 26.4017 1.09835C25.6984 0.395088 24.7446 0 23.75 0H3.75C2.75544 0 1.80161 0.395088 1.09835 1.09835C0.395088 1.80161 0 2.75544 0 3.75L0 26.25C0 27.2446 0.395088 28.1984 1.09835 28.9017C1.80161 29.6049 2.75544 30 3.75 30H23.75C24.7446 30 25.6984 29.6049 26.4017 28.9017C27.1049 28.1984 27.5 27.2446 27.5 26.25V21.25C27.5 20.9185 27.3683 20.6005 27.1339 20.3661C26.8995 20.1317 26.5815 20 26.25 20C25.9185 20 25.6005 20.1317 25.3661 20.3661C25.1317 20.6005 25 20.9185 25 21.25V26.25Z" fill="black"/>
<path fill-rule="evenodd" clip-rule="evenodd" d="M39.635 15.885C39.7514 15.7689 39.8438 15.6309 39.9068 15.4791C39.9698 15.3272 40.0022 15.1644 40.0022 15C40.0022 14.8356 39.9698 14.6728 39.9068 14.5209C39.8438 14.369 39.7514 14.2311 39.635 14.115L32.135 6.61499C31.9003 6.38028 31.5819 6.24841 31.25 6.24841C30.9181 6.24841 30.5997 6.38028 30.365 6.61499C30.1303 6.84971 29.9984 7.16805 29.9984 7.49999C29.9984 7.83193 30.1303 8.15028 30.365 8.38499L35.7325 13.75H13.75C13.4185 13.75 13.1005 13.8817 12.8661 14.1161C12.6317 14.3505 12.5 14.6685 12.5 15C12.5 15.3315 12.6317 15.6495 12.8661 15.8839C13.1005 16.1183 13.4185 16.25 13.75 16.25H35.7325L30.365 21.615C30.1303 21.8497 29.9984 22.1681 29.9984 22.5C29.9984 22.8319 30.1303 23.1503 30.365 23.385C30.5997 23.6197 30.9181 23.7516 31.25 23.7516C31.5819 23.7516 31.9003 23.6197 32.135 23.385L39.635 15.885Z" fill="black"/>
</svg>
