<svg width="308" height="63" viewBox="0 0 308 63" fill="none" xmlns="http://www.w3.org/2000/svg">
<path d="M22.983 30.8663H1V24.5855C1.20936 21.0263 4.5766 18.5663 6.23404 17.7812V6.26632H4.66383C3.1983 2.07909 5.79787 1.03228 7.28085 1.03228H16.7021C19.8426 0.508873 20.366 6.52802 19.3191 6.26632C18.4817 6.05696 17.9234 6.35356 17.7489 6.52802V17.7812C21.3081 19.4561 22.7213 23.0153 22.983 24.5855V30.8663Z" fill="#FFB395" stroke="#FFB395"/>
<path d="M1.26172 61.9766V48.3681H23.2447V61.9766L22.983 62.2383L22.7213 62.5H1.78512L1.52342 62.2383L1.26172 61.9766Z" fill="#FFB395" stroke="#FFB395"/>
<path d="M1.26172 45.751V34.2361H23.2447V45.751H1.26172Z" fill="#FFB395" stroke="#FFB395"/>
<path d="M7.13603 45.4043L11.996 34.9043H12.491L17.351 45.4043H16.796L12.131 35.2493H12.356L7.69103 45.4043H7.13603ZM8.81603 42.3293L9.01103 41.8943H15.431L15.626 42.3293H8.81603Z" fill="white"/>
<ellipse cx="11.9915" cy="3.09362" rx="6.28085" ry="1.04681" fill="white"/>
<path d="M55.6958 41.0404H30.049L32.1426 60.4064C33.6081 61.6625 36.9404 61.9766 38.4234 61.9766H47.3213C51.2992 61.9766 53.5149 60.9298 54.1255 60.4064L55.6958 41.0404Z" fill="#FFB395" stroke="#FFB395"/>
<path d="M46.7979 42.6107L42.6106 46.2745L40.517 44.7043H38.4234L34.7596 48.3681V50.4617L42.6106 58.3128H44.7043L48.3681 55.1724V52.5553L51.5085 49.1532V46.7979L46.7979 42.6107Z" fill="white" stroke="#FFB395"/>
<path d="M46.7979 45.2277L44.1808 47.8447L46.7979 50.4617L49.4149 47.8447L46.7979 45.2277Z" fill="#FFB395" stroke="#FFB395"/>
<path d="M43.9191 51.2468L41.3021 53.8638L43.9191 56.4808L46.5362 53.8638L43.9191 51.2468Z" fill="#FFB395" stroke="#FFB395"/>
<path d="M39.7319 47.0596L37.1149 49.6766L39.7319 52.2936L42.3489 49.6766L39.7319 47.0596Z" fill="#FFB395" stroke="#FFB395"/>
<path d="M56.2192 38.4234H30.049V31.6192C31.3051 29.9443 34.4107 29.5255 35.8064 29.5255H49.9383C53.9162 29.5255 55.783 30.9213 56.2192 31.6192V38.4234Z" fill="#FFB395" stroke="#FFB395"/>
<ellipse cx="43.1341" cy="31.0957" rx="10.7298" ry="0.785106" fill="white"/>
<path d="M81.9771 49.24C79.4811 49.24 77.1131 48.824 74.8731 47.992C72.6651 47.128 70.9531 46.024 69.7371 44.68L70.8411 42.856C71.9931 44.04 73.5611 45.048 75.5451 45.88C77.5611 46.68 79.6891 47.08 81.9291 47.08C84.1691 47.08 85.9931 46.792 87.4011 46.216C88.8411 45.608 89.8971 44.808 90.5691 43.816C91.2731 42.824 91.6251 41.72 91.6251 40.504C91.6251 39.064 91.2411 37.912 90.4731 37.048C89.7051 36.184 88.6971 35.496 87.4491 34.984C86.2011 34.472 84.8411 34.04 83.3691 33.688C81.8971 33.336 80.4091 32.968 78.9051 32.584C77.4011 32.168 76.0251 31.64 74.7771 31C73.5291 30.36 72.5211 29.496 71.7531 28.408C71.0171 27.288 70.6491 25.848 70.6491 24.088C70.6491 22.488 71.0651 21.016 71.8971 19.672C72.7291 18.328 74.0251 17.24 75.7851 16.408C77.5451 15.576 79.8011 15.16 82.5531 15.16C84.4091 15.16 86.2331 15.432 88.0251 15.976C89.8491 16.52 91.4011 17.256 92.6811 18.184L91.7691 20.152C90.3611 19.192 88.8411 18.488 87.2091 18.04C85.6091 17.56 84.0571 17.32 82.5531 17.32C80.4091 17.32 78.6331 17.624 77.2251 18.232C75.8171 18.84 74.7771 19.656 74.1051 20.68C73.4331 21.672 73.0971 22.792 73.0971 24.04C73.0971 25.48 73.4651 26.632 74.2011 27.496C74.9691 28.36 75.9771 29.048 77.2251 29.56C78.4731 30.072 79.8491 30.504 81.3531 30.856C82.8571 31.208 84.3451 31.592 85.8171 32.008C87.2891 32.392 88.6491 32.904 89.8971 33.544C91.1451 34.184 92.1531 35.048 92.9211 36.136C93.6891 37.224 94.0731 38.632 94.0731 40.36C94.0731 41.928 93.6411 43.4 92.7771 44.776C91.9131 46.12 90.5851 47.208 88.7931 48.04C87.0331 48.84 84.7611 49.24 81.9771 49.24ZM127.307 15.4H129.755V49H127.307V15.4ZM104.843 49H102.395V15.4H104.843V49ZM127.595 33.016H104.555V30.856H127.595V33.016ZM135.873 49L151.329 15.4H153.777L169.233 49H166.593L152.001 16.936H153.057L138.513 49H135.873ZM141.537 39.544L142.353 37.48H162.465L163.281 39.544H141.537ZM177.445 40.504L177.349 37.432L198.757 15.4H201.733L186.757 30.904L185.365 32.392L177.445 40.504ZM175.333 49V15.4H177.781V49H175.333ZM199.765 49L184.645 31.72L186.325 29.944L202.741 49H199.765ZM211.243 30.856H229.435V33.016H211.243V30.856ZM211.531 46.792H232.267V49H209.083V15.4H231.547V17.608H211.531V46.792ZM254.344 49.24C250.184 49.24 246.904 48.024 244.504 45.592C242.104 43.16 240.904 39.544 240.904 34.744V15.4H243.352V34.648C243.352 38.84 244.312 41.944 246.232 43.96C248.152 45.976 250.872 46.984 254.392 46.984C257.88 46.984 260.584 45.976 262.504 43.96C264.424 41.944 265.384 38.84 265.384 34.648V15.4H267.832V34.744C267.832 39.544 266.632 43.16 264.232 45.592C261.832 48.024 258.536 49.24 254.344 49.24ZM279.254 49V15.4H291.302C294.118 15.4 296.534 15.848 298.55 16.744C300.566 17.64 302.118 18.936 303.206 20.632C304.294 22.296 304.838 24.328 304.838 26.728C304.838 29.064 304.294 31.08 303.206 32.776C302.118 34.472 300.566 35.768 298.55 36.664C296.534 37.56 294.118 38.008 291.302 38.008H280.598L281.702 36.856V49H279.254ZM281.702 37L280.598 35.8H291.302C294.918 35.8 297.654 35.016 299.51 33.448C301.398 31.848 302.342 29.608 302.342 26.728C302.342 23.816 301.398 21.576 299.51 20.008C297.654 18.408 294.918 17.608 291.302 17.608H280.598L281.702 16.408V37Z" fill="#FFB395"/>
</svg>
