<svg width="180" height="200" viewBox="0 0 180 200" fill="none" xmlns="http://www.w3.org/2000/svg">
<path d="M79.7196 93.3349H79.6851C77.7745 93.3349 76.2407 94.8282 76.2407 96.6681C76.2407 98.5079 77.809 100.001 79.7196 100.001C81.6302 100.001 83.181 98.5079 83.181 96.6681C83.181 94.8282 81.6302 93.3349 79.7196 93.3349Z" fill="#FFA07A"/>
<path d="M72.7964 73.3351H72.7619C70.8513 73.3351 69.3175 74.8284 69.3175 76.6683C69.3175 78.5081 70.8857 80.0014 72.7964 80.0014C74.7106 80.0014 76.2578 78.5081 76.2578 76.6683C76.2578 74.8284 74.7106 73.3351 72.7964 73.3351Z" fill="#FFA07A"/>
<path d="M100.489 73.3351H100.454C98.5438 73.3351 97.0137 74.8284 97.0137 76.6683C97.0137 78.5081 98.5783 80.0014 100.489 80.0014C102.4 80.0014 103.951 78.5081 103.951 76.6683C103.951 74.8284 102.399 73.3351 100.489 73.3351Z" fill="#FFA07A"/>
<path d="M55.8799 91.7181C56.5273 92.758 57.6729 93.3349 58.8501 93.3349C59.4557 93.3349 60.0719 93.1814 60.6293 92.8584C62.2665 91.9119 62.7995 89.865 61.8166 88.285L48.3478 66.6683H128.078C129.992 66.6683 131.539 65.175 131.539 63.3352C131.539 61.4954 129.992 60.002 128.078 60.002H44.1903L41.0473 54.952C40.0644 53.372 37.9388 52.8653 36.298 53.8122C34.6571 54.7587 34.1277 56.8055 35.1106 58.3856L55.8799 91.7181Z" fill="#FFA07A"/>
<path d="M148.846 40.0018H33.2933L13.4826 1.84548C12.6275 0.199014 10.5506 -0.471292 8.83709 0.352138C7.12727 1.17908 6.43523 3.17907 7.28994 4.82554L25.5531 40.0018H3.46141C1.5508 40.0018 0 41.4951 0 43.335C0 69.5546 14.8326 86.5346 37.8107 86.6678C38.5445 87.2678 39.8393 89.6142 40.7946 91.3545C45.0868 99.1478 52.1484 111.901 72.6929 113.204V193.334H45.0004C43.0898 193.334 41.539 194.827 41.539 196.667C41.539 198.507 43.0898 200 45.0004 200H107.308C109.223 200 110.77 198.507 110.77 196.667C110.77 194.827 109.223 193.334 107.308 193.334H79.6158V113.205C100.16 111.901 107.221 99.1481 111.514 91.3549C112.473 89.615 113.764 87.2682 114.501 86.6682C137.479 86.535 152.308 69.555 152.308 43.3354C152.308 41.4951 150.761 40.0018 148.846 40.0018ZM114.231 80.0014C109.932 80.0014 107.834 83.8147 105.397 88.2314C101.115 96.0114 95.2447 106.668 76.1539 106.668C57.0636 106.668 51.1963 96.0114 46.9106 88.2314C44.4771 83.8147 42.3758 80.0014 38.0768 80.0014C25.7121 80.0014 17.6502 74.5015 12.8246 66.6684H27.6921C29.6027 66.6684 31.1535 65.175 31.1535 63.3352C31.1535 61.4954 29.6027 60.002 27.6921 60.002H9.66097C8.1483 55.7821 7.28994 51.2353 7.02343 46.6689H145.288C144.305 63.3551 135.765 80.0014 114.231 80.0014Z" fill="#FFA07A"/>
<path d="M170.924 22.1922C170.9 22.1723 170.893 22.1422 170.872 22.1223C170.852 22.0988 170.82 22.0922 170.8 22.0723C165.161 16.6758 157.404 13.3356 148.847 13.3356C140.66 13.3356 132.948 16.5391 127.219 21.8656C127.088 21.959 126.935 22.009 126.818 22.1223C126.714 22.2223 126.672 22.3523 126.586 22.459C124.218 24.789 122.179 27.4554 120.687 30.4788C119.867 32.1421 120.604 34.1323 122.331 34.9221C124.051 35.7186 126.128 35.0053 126.942 33.339C127.641 31.9257 128.524 30.6323 129.482 29.4023L136.61 36.2655C137.285 36.9155 138.171 37.242 139.057 37.242C139.943 37.242 140.829 36.9155 141.504 36.2655C142.858 34.9624 142.858 32.8522 141.504 31.5523L134.387 24.7023C138.51 21.7422 143.546 20.0024 148.846 20.0024C154.281 20.0024 159.283 21.7523 163.329 24.6722L156.188 31.5523C154.838 32.8522 154.838 34.9655 156.188 36.2655C156.866 36.9155 157.749 37.242 158.635 37.242C159.522 37.242 160.407 36.9155 161.082 36.2655L168.224 29.3855C171.259 33.2819 173.077 38.1022 173.077 43.3354C173.077 48.522 171.284 53.3618 168.237 57.2919L161.082 50.4052C159.732 49.1017 157.541 49.1017 156.188 50.4052C154.838 51.7087 154.838 53.8185 156.188 55.1185L163.315 61.9785C160.823 63.775 157.988 65.182 154.824 65.9551C152.972 66.4051 151.847 68.2183 152.318 70.005C152.716 71.5152 154.128 72.5183 155.672 72.5183C155.956 72.5183 156.24 72.4851 156.527 72.4152C162.097 71.0519 166.978 68.2785 170.834 64.5754C170.848 64.5621 170.865 64.5586 170.875 64.5453C170.889 64.532 170.893 64.5152 170.906 64.502C176.573 59.0219 180 51.5021 180 43.3354C180 35.0921 176.528 27.6222 170.924 22.1922Z" fill="#FFA07A"/>
</svg>
